# xmcd
#
# Track frame offsets: 
#        182
#        17732
#        35595
#        52482
#        66457
#        85170
#        107457
#        125832
#        140332
#        157445
#        176367
#        198232
#        212645
#        229520
#        248932
#
# Disc length: 3560 seconds
#
# Revision: 2
# Processed by: cddbd v1.4PL0 Copyright (c) Steve Scherf et al.
# Submitted via: ExactAudioCopy v0.90a11
#
DISCID=dd0de60f
DTITLE=Vince Gill - Songs From The Heart - Disc 2
DYEAR=1900
DGENRE=
TTITLE0=Ain't Nothing Like The Real Thing
TTITLE1=I Still Believe In You
TTITLE2=Don't Let Our Lover Start Slippin' Away
TTITLE3=What The Cowgirls Do
TTITLE4=No Future In The Past
TTITLE5=Nothing Like A Woman
TTITLE6=When Love Finds You
TTITLE7=What's A Man To Do
TTITLE8=You Better Think Twice
TTITLE9=Love Never Broke Anyone's Heart
TTITLE10=Maybe Tonight
TTITLE11=One More Last Change
TTITLE12=Tryin' To Get Over You
TTITLE13=Whenever You Come Around
TTITLE14=Have Yourself A Merry Little Christmas
EXTD=
EXTT0=
EXTT1=
EXTT2=
EXTT3=
EXTT4=
EXTT5=
EXTT6=
EXTT7=
EXTT8=
EXTT9=
EXTT10=
EXTT11=
EXTT12=
EXTT13=
EXTT14=
PLAYORDER=
